<mxfile host="app.diagrams.net" modified="2023-08-01T06:34:01.534Z" agent="Mozilla/5.0 (Macintosh; Intel Mac OS X 10_15_7) AppleWebKit/537.36 (KHTML, like Gecko) Chrome/115.0.0.0 Safari/537.36" etag="smsuiIzFtEJD2M4e5p16" version="21.6.5" type="github">
  <diagram name="Page-1" id="wiHoxaamiO45fGIozESU">
    <mxGraphModel dx="1687" dy="2029" grid="1" gridSize="10" guides="1" tooltips="1" connect="1" arrows="1" fold="1" page="1" pageScale="1" pageWidth="850" pageHeight="1100" math="0" shadow="0">
      <root>
        <mxCell id="0" />
        <mxCell id="1" parent="0" />
        <mxCell id="bjcQ7HL3ElRiH-m9O8MQ-53" value="" style="edgeStyle=orthogonalEdgeStyle;rounded=0;orthogonalLoop=1;jettySize=auto;html=1;exitX=0.5;exitY=1;exitDx=0;exitDy=0;" edge="1" parent="1" source="bjcQ7HL3ElRiH-m9O8MQ-5" target="bjcQ7HL3ElRiH-m9O8MQ-52">
          <mxGeometry relative="1" as="geometry" />
        </mxCell>
        <mxCell id="bjcQ7HL3ElRiH-m9O8MQ-75" value="" style="edgeStyle=orthogonalEdgeStyle;rounded=0;orthogonalLoop=1;jettySize=auto;html=1;" edge="1" parent="1" source="bjcQ7HL3ElRiH-m9O8MQ-56" target="bjcQ7HL3ElRiH-m9O8MQ-74">
          <mxGeometry relative="1" as="geometry" />
        </mxCell>
        <mxCell id="bjcQ7HL3ElRiH-m9O8MQ-73" value="" style="edgeStyle=orthogonalEdgeStyle;rounded=0;orthogonalLoop=1;jettySize=auto;html=1;" edge="1" parent="1" source="bjcQ7HL3ElRiH-m9O8MQ-59" target="bjcQ7HL3ElRiH-m9O8MQ-72">
          <mxGeometry relative="1" as="geometry" />
        </mxCell>
        <mxCell id="bjcQ7HL3ElRiH-m9O8MQ-72" value="End" style="ellipse;whiteSpace=wrap;html=1;fillColor=#e51400;strokeColor=#B20000;fontColor=#ffffff;" vertex="1" parent="1">
          <mxGeometry x="2310" y="475" width="80" height="80" as="geometry" />
        </mxCell>
        <mxCell id="bjcQ7HL3ElRiH-m9O8MQ-74" value="End" style="ellipse;whiteSpace=wrap;html=1;fillColor=#e51400;strokeColor=#B20000;fontColor=#ffffff;" vertex="1" parent="1">
          <mxGeometry x="2140" y="170" width="80" height="80" as="geometry" />
        </mxCell>
        <mxCell id="bjcQ7HL3ElRiH-m9O8MQ-76" value="- Stampduty amount&lt;br&gt;- Valuation certificate" style="shape=note;whiteSpace=wrap;html=1;backgroundOutline=1;darkOpacity=0.05;fillColor=#e1d5e7;strokeColor=#9673a6;align=left;" vertex="1" parent="1">
          <mxGeometry x="1490" y="60" width="130" height="90" as="geometry" />
        </mxCell>
        <mxCell id="bjcQ7HL3ElRiH-m9O8MQ-79" value="Head of Stamp Duty" style="swimlane;horizontal=0;whiteSpace=wrap;html=1;startSize=40;" vertex="1" parent="1">
          <mxGeometry y="440" width="2240" height="520" as="geometry" />
        </mxCell>
        <mxCell id="bjcQ7HL3ElRiH-m9O8MQ-3" value="Application&amp;nbsp;&lt;br&gt;process" style="whiteSpace=wrap;html=1;fillColor=#008a00;strokeColor=#005700;fontColor=#ffffff;" vertex="1" parent="bjcQ7HL3ElRiH-m9O8MQ-79">
          <mxGeometry x="45" y="80" width="120" height="60" as="geometry" />
        </mxCell>
        <mxCell id="bjcQ7HL3ElRiH-m9O8MQ-9" value="Transfer" style="whiteSpace=wrap;html=1;fillColor=#008a00;strokeColor=#005700;fontColor=#ffffff;" vertex="1" parent="bjcQ7HL3ElRiH-m9O8MQ-79">
          <mxGeometry x="470" y="250" width="120" height="60" as="geometry" />
        </mxCell>
        <mxCell id="bjcQ7HL3ElRiH-m9O8MQ-11" value="Transfer&lt;br&gt;Type ?" style="rhombus;whiteSpace=wrap;html=1;fillColor=#008a00;strokeColor=#005700;fontColor=#ffffff;" vertex="1" parent="bjcQ7HL3ElRiH-m9O8MQ-79">
          <mxGeometry x="700" y="230" width="100" height="100" as="geometry" />
        </mxCell>
        <mxCell id="bjcQ7HL3ElRiH-m9O8MQ-12" value="" style="edgeStyle=orthogonalEdgeStyle;rounded=0;orthogonalLoop=1;jettySize=auto;html=1;" edge="1" parent="bjcQ7HL3ElRiH-m9O8MQ-79" source="bjcQ7HL3ElRiH-m9O8MQ-9" target="bjcQ7HL3ElRiH-m9O8MQ-11">
          <mxGeometry relative="1" as="geometry" />
        </mxCell>
        <mxCell id="bjcQ7HL3ElRiH-m9O8MQ-5" value="Process ?" style="rhombus;whiteSpace=wrap;html=1;fillColor=#008a00;strokeColor=#005700;fontColor=#ffffff;" vertex="1" parent="bjcQ7HL3ElRiH-m9O8MQ-79">
          <mxGeometry x="210" y="240" width="80" height="80" as="geometry" />
        </mxCell>
        <mxCell id="bjcQ7HL3ElRiH-m9O8MQ-6" value="" style="edgeStyle=orthogonalEdgeStyle;rounded=0;orthogonalLoop=1;jettySize=auto;html=1;entryX=0;entryY=0.5;entryDx=0;entryDy=0;exitX=0.5;exitY=1;exitDx=0;exitDy=0;" edge="1" parent="bjcQ7HL3ElRiH-m9O8MQ-79" source="bjcQ7HL3ElRiH-m9O8MQ-3" target="bjcQ7HL3ElRiH-m9O8MQ-5">
          <mxGeometry relative="1" as="geometry" />
        </mxCell>
        <mxCell id="bjcQ7HL3ElRiH-m9O8MQ-10" value="" style="edgeStyle=orthogonalEdgeStyle;rounded=0;orthogonalLoop=1;jettySize=auto;html=1;" edge="1" parent="bjcQ7HL3ElRiH-m9O8MQ-79" source="bjcQ7HL3ElRiH-m9O8MQ-5" target="bjcQ7HL3ElRiH-m9O8MQ-9">
          <mxGeometry relative="1" as="geometry" />
        </mxCell>
        <mxCell id="bjcQ7HL3ElRiH-m9O8MQ-18" value="LRA 39, 42, 44, 46,&lt;br&gt;&amp;nbsp;50, 51" style="whiteSpace=wrap;html=1;fillColor=#008a00;strokeColor=#005700;fontColor=#ffffff;" vertex="1" parent="bjcQ7HL3ElRiH-m9O8MQ-79">
          <mxGeometry x="930" y="250" width="120" height="60" as="geometry" />
        </mxCell>
        <mxCell id="bjcQ7HL3ElRiH-m9O8MQ-19" value="" style="edgeStyle=orthogonalEdgeStyle;rounded=0;orthogonalLoop=1;jettySize=auto;html=1;" edge="1" parent="bjcQ7HL3ElRiH-m9O8MQ-79" source="bjcQ7HL3ElRiH-m9O8MQ-11" target="bjcQ7HL3ElRiH-m9O8MQ-18">
          <mxGeometry relative="1" as="geometry" />
        </mxCell>
        <mxCell id="bjcQ7HL3ElRiH-m9O8MQ-20" value="Nominal&lt;br&gt;Duty" style="edgeLabel;html=1;align=center;verticalAlign=middle;resizable=0;points=[];" vertex="1" connectable="0" parent="bjcQ7HL3ElRiH-m9O8MQ-19">
          <mxGeometry x="-0.2889" y="-1" relative="1" as="geometry">
            <mxPoint as="offset" />
          </mxGeometry>
        </mxCell>
        <mxCell id="bjcQ7HL3ElRiH-m9O8MQ-15" value="LRA 33,35,36,43,44,&lt;br&gt;45, 48, 49, 52, 60, 61, 61A, 66A, Transfer of lease, Long term lease" style="whiteSpace=wrap;html=1;fillColor=#008a00;strokeColor=#005700;fontColor=#ffffff;" vertex="1" parent="bjcQ7HL3ElRiH-m9O8MQ-79">
          <mxGeometry x="675" y="410" width="150" height="90" as="geometry" />
        </mxCell>
        <mxCell id="bjcQ7HL3ElRiH-m9O8MQ-16" value="" style="edgeStyle=orthogonalEdgeStyle;rounded=0;orthogonalLoop=1;jettySize=auto;html=1;" edge="1" parent="bjcQ7HL3ElRiH-m9O8MQ-79" source="bjcQ7HL3ElRiH-m9O8MQ-11" target="bjcQ7HL3ElRiH-m9O8MQ-15">
          <mxGeometry relative="1" as="geometry" />
        </mxCell>
        <mxCell id="bjcQ7HL3ElRiH-m9O8MQ-17" value="Full&lt;br&gt;Duty" style="edgeLabel;html=1;align=center;verticalAlign=middle;resizable=0;points=[];" vertex="1" connectable="0" parent="bjcQ7HL3ElRiH-m9O8MQ-16">
          <mxGeometry x="-0.2" relative="1" as="geometry">
            <mxPoint as="offset" />
          </mxGeometry>
        </mxCell>
        <mxCell id="bjcQ7HL3ElRiH-m9O8MQ-77" value="End" style="ellipse;whiteSpace=wrap;html=1;fillColor=#e51400;strokeColor=#B20000;fontColor=#ffffff;" vertex="1" parent="bjcQ7HL3ElRiH-m9O8MQ-79">
          <mxGeometry x="1340" y="240" width="80" height="80" as="geometry" />
        </mxCell>
        <mxCell id="bjcQ7HL3ElRiH-m9O8MQ-78" value="" style="edgeStyle=orthogonalEdgeStyle;rounded=0;orthogonalLoop=1;jettySize=auto;html=1;" edge="1" parent="bjcQ7HL3ElRiH-m9O8MQ-79" source="bjcQ7HL3ElRiH-m9O8MQ-18" target="bjcQ7HL3ElRiH-m9O8MQ-77">
          <mxGeometry relative="1" as="geometry" />
        </mxCell>
        <mxCell id="bjcQ7HL3ElRiH-m9O8MQ-36" value="End" style="ellipse;whiteSpace=wrap;html=1;fillColor=#e51400;strokeColor=#B20000;fontColor=#ffffff;" vertex="1" parent="bjcQ7HL3ElRiH-m9O8MQ-79">
          <mxGeometry x="1600" y="215" width="80" height="80" as="geometry" />
        </mxCell>
        <mxCell id="bjcQ7HL3ElRiH-m9O8MQ-38" value="- Stampduty amount&lt;br&gt;- Valuation certificate" style="shape=note;whiteSpace=wrap;html=1;backgroundOutline=1;darkOpacity=0.05;fillColor=#e1d5e7;strokeColor=#9673a6;align=left;" vertex="1" parent="bjcQ7HL3ElRiH-m9O8MQ-79">
          <mxGeometry x="1760" y="210" width="130" height="90" as="geometry" />
        </mxCell>
        <mxCell id="bjcQ7HL3ElRiH-m9O8MQ-39" style="edgeStyle=orthogonalEdgeStyle;rounded=0;orthogonalLoop=1;jettySize=auto;html=1;entryX=0;entryY=0.5;entryDx=0;entryDy=0;entryPerimeter=0;dashed=1;" edge="1" parent="bjcQ7HL3ElRiH-m9O8MQ-79" source="bjcQ7HL3ElRiH-m9O8MQ-36" target="bjcQ7HL3ElRiH-m9O8MQ-38">
          <mxGeometry relative="1" as="geometry" />
        </mxCell>
        <mxCell id="bjcQ7HL3ElRiH-m9O8MQ-23" value="NIL / Amount" style="whiteSpace=wrap;html=1;fillColor=#008a00;strokeColor=#005700;fontColor=#ffffff;" vertex="1" parent="bjcQ7HL3ElRiH-m9O8MQ-79">
          <mxGeometry x="960" y="425" width="120" height="60" as="geometry" />
        </mxCell>
        <mxCell id="bjcQ7HL3ElRiH-m9O8MQ-22" value="" style="edgeStyle=orthogonalEdgeStyle;rounded=0;orthogonalLoop=1;jettySize=auto;html=1;entryX=0;entryY=0.5;entryDx=0;entryDy=0;" edge="1" parent="bjcQ7HL3ElRiH-m9O8MQ-79" source="bjcQ7HL3ElRiH-m9O8MQ-15" target="bjcQ7HL3ElRiH-m9O8MQ-23">
          <mxGeometry relative="1" as="geometry">
            <mxPoint x="910" y="380" as="targetPoint" />
          </mxGeometry>
        </mxCell>
        <mxCell id="bjcQ7HL3ElRiH-m9O8MQ-50" value="Other&lt;br&gt;Processes" style="whiteSpace=wrap;html=1;fillColor=#008a00;strokeColor=#005700;fontColor=#ffffff;" vertex="1" parent="bjcQ7HL3ElRiH-m9O8MQ-79">
          <mxGeometry x="480" y="90" width="120" height="60" as="geometry" />
        </mxCell>
        <mxCell id="bjcQ7HL3ElRiH-m9O8MQ-51" value="" style="edgeStyle=orthogonalEdgeStyle;rounded=0;orthogonalLoop=1;jettySize=auto;html=1;exitX=0.5;exitY=0;exitDx=0;exitDy=0;entryX=0;entryY=0.5;entryDx=0;entryDy=0;" edge="1" parent="bjcQ7HL3ElRiH-m9O8MQ-79" source="bjcQ7HL3ElRiH-m9O8MQ-5" target="bjcQ7HL3ElRiH-m9O8MQ-50">
          <mxGeometry relative="1" as="geometry" />
        </mxCell>
        <mxCell id="bjcQ7HL3ElRiH-m9O8MQ-54" value="nominal ?" style="rhombus;whiteSpace=wrap;html=1;fillColor=#008a00;strokeColor=#005700;fontColor=#ffffff;" vertex="1" parent="bjcQ7HL3ElRiH-m9O8MQ-79">
          <mxGeometry x="770" y="80" width="80" height="80" as="geometry" />
        </mxCell>
        <mxCell id="bjcQ7HL3ElRiH-m9O8MQ-55" value="" style="edgeStyle=orthogonalEdgeStyle;rounded=0;orthogonalLoop=1;jettySize=auto;html=1;" edge="1" parent="bjcQ7HL3ElRiH-m9O8MQ-79" source="bjcQ7HL3ElRiH-m9O8MQ-50" target="bjcQ7HL3ElRiH-m9O8MQ-54">
          <mxGeometry relative="1" as="geometry" />
        </mxCell>
        <mxCell id="bjcQ7HL3ElRiH-m9O8MQ-56" value="POA, LRA 65" style="whiteSpace=wrap;html=1;fillColor=#008a00;strokeColor=#005700;fontColor=#ffffff;" vertex="1" parent="bjcQ7HL3ElRiH-m9O8MQ-79">
          <mxGeometry x="1180" y="10" width="120" height="60" as="geometry" />
        </mxCell>
        <mxCell id="bjcQ7HL3ElRiH-m9O8MQ-57" value="" style="edgeStyle=orthogonalEdgeStyle;rounded=0;orthogonalLoop=1;jettySize=auto;html=1;exitX=0.5;exitY=0;exitDx=0;exitDy=0;entryX=0;entryY=0.5;entryDx=0;entryDy=0;" edge="1" parent="bjcQ7HL3ElRiH-m9O8MQ-79" source="bjcQ7HL3ElRiH-m9O8MQ-54" target="bjcQ7HL3ElRiH-m9O8MQ-56">
          <mxGeometry relative="1" as="geometry" />
        </mxCell>
        <mxCell id="bjcQ7HL3ElRiH-m9O8MQ-58" value="Yes" style="edgeLabel;html=1;align=center;verticalAlign=middle;resizable=0;points=[];" vertex="1" connectable="0" parent="bjcQ7HL3ElRiH-m9O8MQ-57">
          <mxGeometry x="-0.0751" y="1" relative="1" as="geometry">
            <mxPoint as="offset" />
          </mxGeometry>
        </mxCell>
        <mxCell id="bjcQ7HL3ElRiH-m9O8MQ-80" value="Collector" style="swimlane;horizontal=0;whiteSpace=wrap;html=1;startSize=40;" vertex="1" parent="1">
          <mxGeometry y="1010" width="2240" height="280" as="geometry" />
        </mxCell>
        <mxCell id="bjcQ7HL3ElRiH-m9O8MQ-83" value="" style="edgeStyle=orthogonalEdgeStyle;rounded=0;orthogonalLoop=1;jettySize=auto;html=1;" edge="1" parent="bjcQ7HL3ElRiH-m9O8MQ-80" source="bjcQ7HL3ElRiH-m9O8MQ-52" target="bjcQ7HL3ElRiH-m9O8MQ-82">
          <mxGeometry relative="1" as="geometry" />
        </mxCell>
        <mxCell id="bjcQ7HL3ElRiH-m9O8MQ-52" value="Charge / Dicharge" style="whiteSpace=wrap;html=1;fillColor=#008a00;strokeColor=#005700;fontColor=#ffffff;" vertex="1" parent="bjcQ7HL3ElRiH-m9O8MQ-80">
          <mxGeometry x="190" y="85" width="120" height="60" as="geometry" />
        </mxCell>
        <mxCell id="bjcQ7HL3ElRiH-m9O8MQ-68" value="End" style="ellipse;whiteSpace=wrap;html=1;fillColor=#e51400;strokeColor=#B20000;fontColor=#ffffff;" vertex="1" parent="bjcQ7HL3ElRiH-m9O8MQ-80">
          <mxGeometry x="710" y="75" width="80" height="80" as="geometry" />
        </mxCell>
        <mxCell id="bjcQ7HL3ElRiH-m9O8MQ-84" style="edgeStyle=orthogonalEdgeStyle;rounded=0;orthogonalLoop=1;jettySize=auto;html=1;entryX=0;entryY=0.5;entryDx=0;entryDy=0;" edge="1" parent="bjcQ7HL3ElRiH-m9O8MQ-80" source="bjcQ7HL3ElRiH-m9O8MQ-82" target="bjcQ7HL3ElRiH-m9O8MQ-68">
          <mxGeometry relative="1" as="geometry" />
        </mxCell>
        <mxCell id="bjcQ7HL3ElRiH-m9O8MQ-82" value="Inputs Stamp Duty to be paid" style="whiteSpace=wrap;html=1;fillColor=#008a00;strokeColor=#005700;fontColor=#ffffff;" vertex="1" parent="bjcQ7HL3ElRiH-m9O8MQ-80">
          <mxGeometry x="440" y="85" width="120" height="60" as="geometry" />
        </mxCell>
        <mxCell id="bjcQ7HL3ElRiH-m9O8MQ-81" value="Applicant (From Public / Staff)" style="swimlane;horizontal=0;whiteSpace=wrap;html=1;startSize=40;" vertex="1" parent="1">
          <mxGeometry y="-280" width="1640" height="280" as="geometry" />
        </mxCell>
        <mxCell id="bjcQ7HL3ElRiH-m9O8MQ-2" value="Start" style="ellipse;whiteSpace=wrap;html=1;aspect=fixed;fillColor=#008a00;fontColor=#ffffff;strokeColor=#005700;" vertex="1" parent="bjcQ7HL3ElRiH-m9O8MQ-81">
          <mxGeometry x="115" y="30" width="50" height="50" as="geometry" />
        </mxCell>
        <mxCell id="bjcQ7HL3ElRiH-m9O8MQ-4" value="" style="edgeStyle=orthogonalEdgeStyle;rounded=0;orthogonalLoop=1;jettySize=auto;html=1;" edge="1" parent="1" source="bjcQ7HL3ElRiH-m9O8MQ-2" target="bjcQ7HL3ElRiH-m9O8MQ-3">
          <mxGeometry relative="1" as="geometry" />
        </mxCell>
        <mxCell id="bjcQ7HL3ElRiH-m9O8MQ-85" value="Dept. of Land Valuation" style="swimlane;horizontal=0;whiteSpace=wrap;html=1;startSize=40;" vertex="1" parent="1">
          <mxGeometry y="1630" width="2240" height="320" as="geometry" />
        </mxCell>
        <mxCell id="bjcQ7HL3ElRiH-m9O8MQ-27" value="Valuation" style="whiteSpace=wrap;html=1;fillColor=#008a00;strokeColor=#005700;fontColor=#ffffff;" vertex="1" parent="bjcQ7HL3ElRiH-m9O8MQ-85">
          <mxGeometry x="960" y="40" width="120" height="60" as="geometry" />
        </mxCell>
        <mxCell id="bjcQ7HL3ElRiH-m9O8MQ-28" value="" style="edgeStyle=orthogonalEdgeStyle;rounded=0;orthogonalLoop=1;jettySize=auto;html=1;" edge="1" parent="1" source="bjcQ7HL3ElRiH-m9O8MQ-23" target="bjcQ7HL3ElRiH-m9O8MQ-87">
          <mxGeometry relative="1" as="geometry" />
        </mxCell>
        <mxCell id="bjcQ7HL3ElRiH-m9O8MQ-86" value="Assessor" style="swimlane;horizontal=0;whiteSpace=wrap;html=1;startSize=40;" vertex="1" parent="1">
          <mxGeometry y="1310" width="2240" height="300" as="geometry" />
        </mxCell>
        <mxCell id="bjcQ7HL3ElRiH-m9O8MQ-59" value="Grants of easement&lt;br&gt;(2% or 4% of consideration amount)" style="whiteSpace=wrap;html=1;fillColor=#008a00;strokeColor=#005700;fontColor=#ffffff;" vertex="1" parent="bjcQ7HL3ElRiH-m9O8MQ-86">
          <mxGeometry x="1960" y="50" width="130" height="70" as="geometry" />
        </mxCell>
        <mxCell id="bjcQ7HL3ElRiH-m9O8MQ-87" value="Selects &lt;br&gt;Rural (2%) or &lt;br&gt;Urban (4%)" style="whiteSpace=wrap;html=1;fillColor=#008a00;strokeColor=#005700;fontColor=#ffffff;" vertex="1" parent="bjcQ7HL3ElRiH-m9O8MQ-86">
          <mxGeometry x="960" y="70" width="120" height="90" as="geometry" />
        </mxCell>
        <mxCell id="bjcQ7HL3ElRiH-m9O8MQ-33" value="Stamp Duty calculated based on the higher amount between the consideration amount and the valuation amount" style="whiteSpace=wrap;html=1;fillColor=#008a00;strokeColor=#005700;fontColor=#ffffff;" vertex="1" parent="bjcQ7HL3ElRiH-m9O8MQ-86">
          <mxGeometry x="1320" y="50" width="130" height="130" as="geometry" />
        </mxCell>
        <mxCell id="bjcQ7HL3ElRiH-m9O8MQ-60" value="" style="edgeStyle=orthogonalEdgeStyle;rounded=0;orthogonalLoop=1;jettySize=auto;html=1;" edge="1" parent="1" source="bjcQ7HL3ElRiH-m9O8MQ-54" target="bjcQ7HL3ElRiH-m9O8MQ-59">
          <mxGeometry relative="1" as="geometry" />
        </mxCell>
        <mxCell id="bjcQ7HL3ElRiH-m9O8MQ-61" value="No" style="edgeLabel;html=1;align=center;verticalAlign=middle;resizable=0;points=[];" vertex="1" connectable="0" parent="bjcQ7HL3ElRiH-m9O8MQ-60">
          <mxGeometry x="-0.0571" y="-2" relative="1" as="geometry">
            <mxPoint as="offset" />
          </mxGeometry>
        </mxCell>
        <mxCell id="bjcQ7HL3ElRiH-m9O8MQ-89" style="edgeStyle=orthogonalEdgeStyle;rounded=0;orthogonalLoop=1;jettySize=auto;html=1;entryX=0.5;entryY=0;entryDx=0;entryDy=0;" edge="1" parent="1" source="bjcQ7HL3ElRiH-m9O8MQ-87" target="bjcQ7HL3ElRiH-m9O8MQ-27">
          <mxGeometry relative="1" as="geometry" />
        </mxCell>
        <mxCell id="bjcQ7HL3ElRiH-m9O8MQ-34" value="" style="edgeStyle=orthogonalEdgeStyle;rounded=0;orthogonalLoop=1;jettySize=auto;html=1;" edge="1" parent="1" source="bjcQ7HL3ElRiH-m9O8MQ-27" target="bjcQ7HL3ElRiH-m9O8MQ-33">
          <mxGeometry relative="1" as="geometry" />
        </mxCell>
      </root>
    </mxGraphModel>
  </diagram>
</mxfile>
